D:\school\WTK\thesis\model\3dpredictsim\Results\Batchsim_tmt_linear\Pog_s1_tmt_bCst_d05_k250_ig24_act_GRF.mot
nRows=17
nColumns=19

name D:\school\WTK\thesis\model\3dpredictsim\Results\Batchsim_tmt_linear\Pog_s1_tmt_bCst_d05_k250_ig24_act_GRF.mot
datacolumns 19
datarows 17
range 0.0000000000 0.2002669365
endheader
time 	ground_force_vx	ground_force_vy	ground_force_vz	ground_force_px	ground_force_py	ground_force_pz	1_ground_force_vx	1_ground_force_vy	1_ground_force_vz	1_ground_force_px	1_ground_force_py	1_ground_force_pz	ground_torque_x	ground_torque_y	ground_torque_z	1_ground_torque_x	1_ground_torque_y	1_ground_torque_z
        0.0000000000	      -30.6275733733	       24.4943730655	        7.7291962544	        0.1851622024	        0.0000000000	        0.0541103909	       76.9864797303	      372.7705523213	       -0.8806935983	       -0.3674947324	        0.0000000000	       -0.0274268944	        0.0000000000	        0.0000000000	        0.0000000000	        0.0000000000	        0.0000000000	        0.0000000000	
        0.0125166835	      -99.6723406303	      104.5854262394	       39.1798089345	        0.1926713477	        0.0000000000	        0.0522964833	       50.0258129088	      269.9805486212	      -11.0029752972	       -0.3559621874	        0.0000000000	       -0.0228682007	        0.0000000000	        0.0000000000	        0.0000000000	        0.0000000000	        0.0000000000	        0.0000000000	
        0.0250333671	      -50.1406662120	      295.9526804969	       16.4060523712	        0.1978737970	        0.0000000000	        0.0504231783	       34.3358745279	      216.2774314874	      -17.2510582224	       -0.3476371177	        0.0000000000	       -0.0191088334	        0.0000000000	        0.0000000000	        0.0000000000	        0.0000000000	        0.0000000000	        0.0000000000	
        0.0375500506	      -52.9637613731	      519.9381994047	       -5.4853272877	        0.2011311102	        0.0000000000	        0.0502264089	       30.6393122574	      182.5457790266	      -17.6268197128	       -0.3476837967	        0.0000000000	       -0.0192177259	        0.0000000000	        0.0000000000	        0.0000000000	        0.0000000000	        0.0000000000	        0.0000000000	
        0.0500667341	     -100.6673760947	      761.9902138765	      -19.4127018263	        0.2110007913	        0.0000000000	        0.0521088830	       22.6253618969	      133.5168532599	      -17.5603340366	       -0.3475200971	        0.0000000000	       -0.0193427952	        0.0000000000	        0.0000000000	        0.0000000000	        0.0000000000	        0.0000000000	        0.0000000000	
        0.0625834176	     -137.3934641496	      911.1583222075	      -20.7643617038	        0.2193073754	        0.0000000000	        0.0538163091	        6.9763442711	       67.8175844751	      -17.6373019222	       -0.3478305154	        0.0000000000	       -0.0201616598	        0.0000000000	        0.0000000000	        0.0000000000	        0.0000000000	        0.0000000000	        0.0000000000	
        0.0751001012	     -138.9409607552	      933.8295527633	      -22.2603733532	        0.2246611741	        0.0000000000	        0.0547098989	      -10.9027547898	       13.5195583582	       -5.3984739324	       -0.3537553266	        0.0000000000	       -0.0202130927	        0.0000000000	        0.0000000000	        0.0000000000	        0.0000000000	        0.0000000000	        0.0000000000	
        0.0876167847	     -125.4902754538	      887.7362428217	      -20.7864890581	        0.2287985865	        0.0000000000	        0.0551926228	      -13.0946038290	       10.5594746272	        0.2201171637	       -0.3463093360	        0.0000000000	       -0.0168265488	        0.0000000000	        0.0000000000	        0.0000000000	        0.0000000000	        0.0000000000	        0.0000000000	
        0.1001334682	     -110.3054879431	      829.4645348274	      -20.1070990558	        0.2331660495	        0.0000000000	        0.0552659368	      -16.3949125533	       11.4004439087	        0.5638310599	       -0.3303508133	        0.0000000000	       -0.0175402093	        0.0000000000	        0.0000000000	        0.0000000000	        0.0000000000	        0.0000000000	        0.0000000000	
        0.1126501518	      -97.0799414687	      779.0742498347	      -19.7337196791	        0.2381830847	        0.0000000000	        0.0550321968	      -16.6935097268	       10.2998116819	        1.0260362666	       -0.3094599083	        0.0000000000	       -0.0186699134	        0.0000000000	        0.0000000000	        0.0000000000	        0.0000000000	        0.0000000000	        0.0000000000	
        0.1251668353	      -88.1197299439	      746.3794597350	      -20.2685515504	        0.2446242469	        0.0000000000	        0.0544071285	      -13.2909909632	        7.4952593648	        1.0254811128	        0.0000000000	        0.0000000000	        0.0000000000	        0.0000000000	        0.0000000000	        0.0000000000	        0.0000000000	        0.0000000000	        0.0000000000	
        0.1376835188	      -79.8154854969	      719.1886136389	      -20.1515899993	        0.2512555764	        0.0000000000	        0.0536528331	       -8.8770113529	        4.6790991200	        0.7716674262	        0.0000000000	        0.0000000000	        0.0000000000	        0.0000000000	        0.0000000000	        0.0000000000	        0.0000000000	        0.0000000000	        0.0000000000	
        0.1502002023	      -70.9508020616	      691.9210909192	      -20.2716021574	        0.2573339976	        0.0000000000	        0.0530315437	       -6.0577489262	        3.0689116273	        0.5249326679	        0.0000000000	        0.0000000000	        0.0000000000	        0.0000000000	        0.0000000000	        0.0000000000	        0.0000000000	        0.0000000000	        0.0000000000	
        0.1627168859	      -61.4867799309	      667.7331586202	      -20.7809095084	        0.2634451005	        0.0000000000	        0.0524908062	       -4.5914641714	        2.2564598037	        0.3903512803	        0.0000000000	        0.0000000000	        0.0000000000	        0.0000000000	        0.0000000000	        0.0000000000	        0.0000000000	        0.0000000000	        0.0000000000	
        0.1752335694	      -53.5819026306	      647.7972743349	      -21.6471487490	        0.2701949055	        0.0000000000	        0.0518962647	       -3.4938624884	        1.6749955962	        0.2969098841	        0.0000000000	        0.0000000000	        0.0000000000	        0.0000000000	        0.0000000000	        0.0000000000	        0.0000000000	        0.0000000000	        0.0000000000	
        0.1877502529	      -47.4323919275	      632.1650469932	      -21.9999114997	        0.2774768340	        0.0000000000	        0.0512157470	       -2.5643398038	        1.2040035590	        0.2173434319	        0.0000000000	        0.0000000000	        0.0000000000	        0.0000000000	        0.0000000000	        0.0000000000	        0.0000000000	        0.0000000000	        0.0000000000	
        0.2002669365	      -42.3630382424	      620.4717207157	      -21.7693001992	        0.2851917321	        0.0000000000	        0.0504269132	       -1.8600436252	        0.8579108113	        0.1569669233	        0.0000000000	        0.0000000000	        0.0000000000	        0.0000000000	        0.0000000000	        0.0000000000	        0.0000000000	        0.0000000000	        0.0000000000	
